<?xml version="1.0" encoding="UTF-8"?><svg xmlns="http://www.w3.org/2000/svg" viewBox="0 0 1385.68 233.44"><defs><style>.d{fill:#6a68eb;}</style></defs><g id="a"/><g id="b"><g id="c"><g><path class="d" d="M144.64,110.02c34.63-20.6,56.54-57.42,56.98-103.01h-42.96c0,46.03-34.19,86.35-80.65,86.35H42.96V7.01H0V226.17H42.96v-97.75h35.06c54.05-.11,85.8,46.18,80.65,97.75h42.96c3.58-49.17-17.53-94.81-56.98-116.15Z"/><path class="d" d="M639.05,21.91l-24.98,40.76c-32.02,61.67-48.97,60.56-80.65,0l-24.98-40.76c-8.85-18.05-35.18-14.3-52.16-14.46V187.59h-31.55c-7.89,0-12.27-4.38-12.27-12.27V50.85c0-28.51-15.34-43.85-43.85-43.85H231V45.6h138.51v49.52c-55.5-32.19-154.17-9.26-154.74,63.12-2.6,71.25,110.73,102.38,156.48,46.46,4.38,14.02,16.66,21.49,36.82,21.49h91.16V80.21h.88c16.61,28.73,32.29,71.89,73.64,71.01,41.74,.29,56.91-42.25,73.64-71.01h.88V226.17h42.52V7.45h-25.42c-11.4,0-20.6,5.26-26.3,14.46ZM369.5,156.92h0c.05,30.55-28.49,39.05-54.79,39.01-101.4-3.38-57.83-119.25,54.8-71.01v32Z"/><path class="d" d="M1025.2,120.54c-19.29,0-37.7-10.96-37.7-43.39V7.01h-42.95V94.68c0,55.67,44.27,68.82,72.32,68.82,44.71,0,74.51-33.75,88.98-71.89v49.53c0,36.38-29.37,46.46-67.94,46.46h-119.66c-7.89-.01-12.27-4.39-12.27-12.28V50.85c0-28.51-15.34-43.85-43.82-43.85h-137.64V45.6h138.51v49.52c-55.49-32.2-154.18-9.23-154.74,63.12-2.6,71.25,110.74,102.38,156.48,46.46,4.38,14.02,16.66,21.49,36.82,21.49h52.61v-.32c77.14,1.04,191.65,12.94,194.6-76.84V7.01h-42.96c0,26.74-25.86,113.52-80.65,113.52Zm-162.17,36.38h0c0,30.65-28.48,39.02-54.8,39.01-101.44-3.41-57.77-119.24,54.8-71.01v32Z"/><path class="d" d="M1218.05,149.03C1405.88,204.5,1440.54,2.39,1298.26,0c-63.12,0-123.17,39.45-123.17,118.78v62.68c0,25.86,19.29,44.71,44.71,44.71h163.93v-38.57h-165.68v-38.57Zm75.83-110.45c26.74,0,48.21,11.83,48.21,35.06,0,42.08-68.82,61.8-124.04,41.64-.25-46.57,33.16-76.75,75.83-76.7Z"/></g></g></g></svg>